Coordinates
version=1
nRows=11
nColumns=36
inDegrees=yes

Units are S.I. units (second, meters, Newtons, ...)
If the header above contains a line with 'inDegrees', this indicates whether rotational values are in degrees (yes) or radians (no).

endheader
time	pelvis_tilt	pelvis_list	pelvis_rotation	pelvis_tx	pelvis_ty	pelvis_tz	hip_flexion_r	hip_adduction_r	hip_rotation_r	knee_angle_r	knee_angle_r_beta	ankle_angle_r	subtalar_angle_r	mtp_angle_r	hip_flexion_l	hip_adduction_l	hip_rotation_l	knee_angle_l	knee_angle_l_beta	ankle_angle_l	subtalar_angle_l	mtp_angle_l	lumbar_extension	lumbar_bending	lumbar_rotation	arm_flex_r	arm_add_r	arm_rot_r	elbow_flex_r	pro_sup_r	arm_flex_l	arm_add_l	arm_rot_l	elbow_flex_l	pro_sup_l
      6.71666670	     -2.55514361	      2.07564499	     10.31024118	      0.93456273	      1.05296664	     -0.07449623	      5.74004617	     -1.08630015	    -23.60973324	      0.63313108	      0.01105022	    -31.69859987	      6.15165846	     -7.49999987	      9.64846795	      1.11167854	    -11.04924669	      0.58022632	      0.01012686	    -31.75009466	      1.86459806	     -7.49999987	     -7.25805585	     -2.95233340	      4.94998076	     -4.53346979	     -6.49782323	      6.78730618	     33.34821775	     78.56855883	      1.64746867	     -9.69755261	     32.83844901	     24.08183082	     68.79883970
      6.73333330	     -2.50470019	      1.75768799	     10.98722019	      0.94259383	      1.03180975	     -0.08008680	      6.58407318	     -0.62786017	    -23.32612961	      0.60538962	      0.01056604	    -30.86848665	      6.32320601	     -7.49999987	     10.28934479	      0.78300758	    -11.58775363	      0.50689268	      0.00884695	    -30.40450104	      1.45323616	     -7.49999987	     -7.35734040	     -2.46049090	      4.45625904	     -4.38006408	     -6.53405716	      7.16905481	     33.31801898	     77.01677511	      1.56549256	     -9.42985954	     32.37722158	     23.39414109	     67.89509708
      6.75000000	     -1.95032304	      1.93008886	     11.32902018	      0.94872561	      0.99840653	     -0.08409780	      6.84331648	     -0.47248029	    -23.34129962	      0.61523889	      0.01073794	    -30.80623652	      5.94756764	     -7.49999987	     10.36133662	      0.85439300	    -12.10809408	      0.56478758	      0.00985740	    -30.80228717	      0.09865274	     -7.49999987	     -8.14678703	     -2.54293614	      3.96874519	     -3.63042993	     -6.69724583	      8.66425350	     33.06081920	     78.45375038	      1.46619284	     -9.72538700	     32.19257844	     23.74516746	     68.79085448
      6.76666670	     -1.35954641	      2.27542808	     11.61646111	      0.95709232	      0.97402177	     -0.08963408	      6.92059104	     -0.45232969	    -23.03287252	      0.69404304	      0.01211334	    -30.12051525	      5.51544643	     -7.49999987	     10.08728979	      1.04370381	    -12.82862757	      0.79344353	      0.01384820	    -32.72521924	     -1.56776836	     -7.49999987	     -9.05583749	     -2.77414096	      3.89376852	     -3.44481811	     -6.41706251	      8.40211286	     33.10792078	     77.43761538	      1.69209262	     -9.93592391	     31.78367181	     24.14822615	     68.26884898
      6.78333330	     -0.55537449	      2.53447823	     11.69794675	      0.96361771	      0.93952157	     -0.09473791	      6.79835754	     -0.34039264	    -22.94678781	      1.29240584	      0.02255674	    -28.45282646	      5.53073255	     -7.49999987	      9.83997629	      0.93130559	    -13.05612640	      2.23385577	      0.03898814	    -34.18311773	     -3.43418273	     -7.49999987	    -10.12247231	     -2.86101306	      3.78932345	     -2.70912391	     -6.19417768	      8.29724470	     32.21454000	     80.82693738	      1.88261559	     -9.91145283	     30.43837258	     23.84660097	     70.99443631
      6.80000000	      0.75152450	      2.65405444	     11.78821074	      0.97354198	      0.90674896	     -0.09973070	      6.62861494	     -0.23525017	    -22.21374151	      3.44437245	      0.06011564	    -25.63867543	      4.41005963	     -7.49999987	      9.97519472	      0.40902142	    -12.34921019	      6.25350464	      0.10914425	    -32.59826854	     -6.10347694	     -7.49999987	    -12.05472382	     -2.59642871	      3.62826793	     -1.99493545	     -6.12676394	      8.83861124	     31.85099744	     77.63299587	      2.26721385	     -9.75411150	     29.71668635	     23.86943982	     69.18801984
      6.81666670	      2.51594332	      2.56429233	     11.89369460	      0.97650642	      0.87421627	     -0.10419082	      7.06602927	     -0.31743129	    -20.91260637	      9.18573314	      0.16032129	    -17.85180691	      1.78030985	     -7.49999987	     10.78126189	     -0.30727860	    -11.28011603	     13.23962391	      0.23107503	    -25.28968197	     -9.95267884	     -7.49999987	    -14.99446046	     -1.83668708	      3.15582564	     -0.36548281	     -6.59932847	     11.15348452	     31.06167191	     76.65422251	      2.84302817	     -9.50850577	     28.97498230	     23.95981679	     68.91604533
      6.83333330	      4.58497503	      2.34122583	     12.15336351	      0.98129180	      0.83653684	     -0.11254243	      9.25062236	     -0.89807940	    -18.53379456	     19.73208227	      0.34438980	     -7.14478113	     -4.07478728	     -7.49999987	     13.49106235	     -1.46263190	     -9.79729508	     25.02905458	      0.43683941	    -13.64391015	    -14.48606123	     -7.49999987	    -18.92605383	     -0.68290239	      2.87437454	      1.47025209	     -6.93131513	     11.13696140	     30.58463422	     74.17878118	      4.16272736	     -8.79613798	     27.58094954	     23.84879092	     67.56431161
      6.85000000	      5.83456936	      1.84518606	     12.56445464	      0.99010258	      0.81610150	     -0.11822394	     14.24038621	     -1.34006011	    -15.50923557	     33.75850567	      0.58919707	      4.31763986	    -11.15167415	     -7.49999987	     17.54854904	     -2.77442385	     -8.67183529	     37.78382413	      0.65945214	     -1.07282580	    -16.86008107	     -7.49999987	    -21.88802683	      0.70729995	      2.69902789	      2.91892438	     -7.48261380	     11.43694787	     30.66644012	     73.84817554	      5.09163987	     -8.16178262	     26.56335344	     24.16782784	     67.47625359
      6.86666670	      6.21369068	      1.70829700	     13.29487694	      0.98922157	      0.79306261	     -0.12229003	     19.99130215	     -2.05306429	    -13.49909628	     47.04485427	      0.82108760	     14.39790434	    -15.30816908	     -7.49999987	     22.38396108	     -3.25736477	     -7.64423799	     49.36801912	      0.86163448	     10.19250614	    -17.74285515	     -7.49999987	    -24.12061348	      1.33769403	      2.42316039	      3.93934357	     -7.76464424	     11.53024921	     31.31917900	     73.82381464	      6.15737547	     -8.23579765	     25.84169628	     25.05690847	     67.59935654
      6.88333330	      5.98046140	      1.55126200	     13.92311835	      0.98911777	      0.77013209	     -0.12381595	     25.43752312	     -2.34966826	    -12.23068234	     57.79166248	      1.00865479	     22.16401809	    -18.04258102	     -7.49999987	     27.52382992	     -3.57289948	     -6.91948258	     59.04055379	      1.03045206	     18.61566477	    -18.27609707	     -7.49999987	    -25.86265970	      1.74072800	      2.28568102	      5.12168199	     -7.80642417	     11.33347219	     31.16901392	     74.43441828	      7.44402781	     -8.11219191	     25.01675038	     25.17472254	     68.17296831
